PathFileType	4	(X/Y/Z)	C:\Users\dbl\Desktop\LZH\BX\Trimmed_bx_y_10_1801.trc
DataRate	CameraRate	NumFrames	NumMarkers	Units	OrigDataRate	OrigDataStartFrame	OrigNumFrames
50.00	50.00	       8	43	mm	50.00	45	       357
Frame#	Time	Top.Head			R.Acromium			L.Acromium			Sternum			R.ASIS			L.ASIS			V.Sacral			R.Thigh.Upper			R.Thigh.Front			R.Thigh.Rear			R.Knee.Lat			R.Knee.Med			R.Shank.Upper			R.Shank.Front			R.Shank.Rear			R.Ankle.Lat			R.Midfoot.Lat			R.Toe.Lat			R.Toe.Tip			R.Toe.Med			R.Ankle.Med			R.Midfoot.Sup			R.Heel			L.Thigh.Upper			L.Thigh.Front			L.Thigh.Rear			L.Knee.Lat			L.Knee.Med			L.Shank.Upper			L.Shank.Front			L.Shank.Rear			L.Ankle.Lat			L.Midfoot.Lat			L.Toe.Lat			L.Toe.Tip			L.Toe.Med			L.Ankle.Med			L.Midfoot.Sup			L.Heel			origin1 front left			origin2 front right			origin 3 back right			origin 4 back leftt			
		X1	Y1	Z1	X2	Y2	Z2	X3	Y3	Z3	X4	Y4	Z4	X5	Y5	Z5	X6	Y6	Z6	X7	Y7	Z7	X8	Y8	Z8	X9	Y9	Z9	X10	Y10	Z10	X11	Y11	Z11	X12	Y12	Z12	X13	Y13	Z13	X14	Y14	Z14	X15	Y15	Z15	X16	Y16	Z16	X17	Y17	Z17	X18	Y18	Z18	X19	Y19	Z19	X20	Y20	Z20	X21	Y21	Z21	X22	Y22	Z22	X23	Y23	Z23	X24	Y24	Z24	X25	Y25	Z25	X26	Y26	Z26	X27	Y27	Z27	X28	Y28	Z28	X29	Y29	Z29	X30	Y30	Z30	X31	Y31	Z31	X32	Y32	Z32	X33	Y33	Z33	X34	Y34	Z34	X35	Y35	Z35	X36	Y36	Z36	X37	Y37	Z37	X38	Y38	Z38	X39	Y39	Z39	X40	Y40	Z40	X41	Y41	Z41	X42	Y42	Z42	X43	Y43	Z43	

45	0.880	-683.57764	248.44601	1835.23389	-630.31165	56.53536	1529.81506	-621.30286	450.21140	1521.62695	-525.40588	260.49545	1399.00732	-537.34406	132.09590	1057.72095	-539.48737	395.20901	1080.12781	-725.49432	239.59718	1063.34521	-569.96741	86.96613	893.68933	-523.74115	147.88171	846.65912	-621.58948	82.70696	752.89752	-644.22528	119.71674	608.40710	-630.12842	230.76866	569.89862	-682.85486	120.67190	543.84814	-598.63885	171.62476	550.64301	-724.01849	126.81091	477.25601	-687.31335	147.15405	213.95364	-618.17035	77.16812	165.58435	-573.10486	49.11963	158.86964	-492.64603	90.57401	161.33473	-531.62750	141.88864	166.48061	-630.41809	216.69336	219.88423	-591.05798	186.92998	170.09850	-713.69940	216.86008	169.67513	-568.41602	430.03629	884.94745	-522.07288	368.66711	840.60925	-615.72717	434.10980	756.75574	-647.42041	408.92737	630.88641	-617.16675	304.89200	582.90326	-656.34106	404.64362	567.09589	-605.35156	362.24216	544.38708	-709.38300	410.91052	515.90570	-679.11823	414.44479	215.49400	-585.35626	468.50235	165.62599	-546.41083	478.81653	159.37614	-486.79895	429.46771	167.88033	-524.91748	388.13699	177.34627	-642.74579	326.44662	206.69238	-593.98431	349.32303	166.95355	-731.88232	343.54733	164.58022	-443.51746	449.15945	147.02542	-450.47253	75.33970	144.65944	-806.26416	82.73154	142.49721	-799.31763	458.09512	144.55653	
46	0.900	-683.95288	248.75194	1835.29004	-630.57770	56.89951	1529.66370	-621.72656	450.64487	1521.71741	-525.75867	260.99957	1399.02161	-537.46490	132.58836	1057.80396	-539.59717	396.15826	1080.25342	-725.69330	240.00140	1063.36487	-570.02692	87.39268	893.82965	-523.66125	148.15530	846.71613	-621.59729	83.03371	753.20142	-644.07672	119.97161	608.34686	-630.05872	230.89383	569.91534	-682.67395	120.81154	543.84149	-598.46002	171.72202	550.68427	-723.84442	127.00963	477.29440	-687.31000	147.18787	213.97252	-618.14502	77.20593	165.63287	-573.08319	49.14755	158.90193	-492.64932	90.60188	161.29292	-531.63440	141.87340	166.44945	-630.46100	216.72763	219.82710	-591.03479	186.96584	170.07655	-713.67401	216.89670	169.64665	-568.71417	430.44141	885.03235	-522.52979	369.13239	840.55023	-616.01349	434.47095	756.69598	-647.51782	409.11819	630.93518	-617.27734	305.18445	582.95752	-656.47571	404.83447	566.98694	-605.34619	362.54211	544.43591	-709.63104	411.14075	515.83728	-679.26337	414.36142	215.25662	-585.38806	468.51578	165.60576	-546.39362	478.83356	159.37679	-486.80139	429.46265	167.87340	-524.93597	388.15717	177.37749	-642.75098	326.46793	206.75328	-593.94067	349.14587	167.26599	-731.86139	343.54318	164.59412	-443.53104	449.16037	146.99950	-450.46759	75.34294	144.66446	-806.26984	82.72671	142.49649	-799.22729	458.15198	144.47943	
47	0.920	-684.30078	249.06224	1835.26855	-630.68781	57.39821	1529.32581	-622.19421	451.06830	1521.78455	-526.06152	261.49994	1398.99927	-537.53406	132.98251	1057.90356	-539.83899	396.93808	1080.17957	-725.94366	240.37656	1063.41150	-570.06866	87.80407	893.99603	-523.64917	148.40639	846.78766	-621.60889	83.34511	753.50989	-643.91833	120.16393	608.32690	-630.09332	230.94084	569.79462	-682.49994	120.95920	543.85687	-598.29706	171.83405	550.71191	-723.67859	127.20263	477.35455	-687.29907	147.18143	213.96835	-618.12048	77.22334	165.68176	-573.06262	49.17131	158.93921	-492.61063	90.62124	161.29398	-531.62885	141.86009	166.42184	-630.56525	216.71066	219.72757	-591.01404	186.98958	170.03706	-713.66663	216.93832	169.65086	-569.00812	430.92856	885.28577	-522.89233	369.59045	840.56207	-616.22760	434.78876	756.69336	-647.63556	409.37036	630.99469	-617.34656	305.49689	583.09399	-656.54388	404.99222	566.86371	-605.35693	362.81982	544.49396	-709.82593	411.41339	515.83008	-679.53778	414.10764	214.77797	-585.39838	468.55661	165.60213	-546.38733	478.81015	159.35519	-486.79675	429.46432	167.87424	-524.94458	388.17322	177.41245	-642.76367	326.49310	206.83563	-593.91681	348.75531	167.87016	-731.85632	343.56052	164.61195	-443.52911	449.15521	146.99420	-450.46365	75.33192	144.66273	-806.27692	82.72250	142.49715	-799.16431	458.15045	144.45102	
48	0.940	-684.65601	249.39165	1835.14917	-630.55499	57.97642	1528.81604	-622.70093	451.45877	1521.80884	-526.33893	262.01968	1398.95581	-537.60724	133.33420	1058.00220	-540.15564	397.51428	1080.05933	-726.24445	240.73375	1063.43823	-570.12372	88.21005	894.11603	-523.69458	148.70212	846.83130	-621.45282	83.68080	753.57495	-643.79614	120.32286	608.32385	-630.16211	230.98846	569.60663	-682.35803	121.12492	543.86823	-598.17566	171.99702	550.69812	-723.55365	127.39022	477.40561	-687.30737	147.16034	213.96638	-618.08997	77.23691	165.72986	-573.03284	49.20256	158.99889	-492.55322	90.63557	161.33182	-531.60181	141.87521	166.42337	-630.75073	216.60818	219.55040	-590.96362	187.01297	170.01404	-713.67389	216.98053	169.65741	-569.28339	431.44656	885.56390	-523.06836	369.97406	840.67798	-616.36023	435.09482	756.74182	-647.78809	409.66626	631.04309	-617.38275	305.79730	583.24683	-656.56116	405.14133	566.74518	-605.41205	363.06268	544.56226	-709.93878	411.70889	515.85638	-679.86951	413.75046	214.15288	-585.38806	468.60754	165.61748	-546.39801	478.77121	159.32402	-486.79486	429.45200	167.89549	-524.93402	388.16708	177.44193	-642.76660	326.51581	206.90869	-593.90985	348.27103	168.60516	-731.87720	343.59750	164.61740	-443.51065	449.13223	147.00075	-450.46448	75.31664	144.66359	-806.27698	82.72006	142.50349	-799.17773	458.06906	144.50285	
49	0.960	-685.04523	249.75024	1834.95093	-630.26654	58.54478	1528.28735	-623.22266	451.82108	1521.79187	-526.62482	262.52850	1398.91431	-537.73883	133.69539	1058.05713	-540.47046	397.95322	1079.98083	-726.53943	241.06859	1063.39136	-570.20099	88.60688	894.18488	-523.76593	149.10498	846.82092	-621.14282	84.02502	753.38098	-643.72125	120.48621	608.29535	-630.20374	231.07471	569.40887	-682.26978	121.29885	543.86859	-598.09198	172.24527	550.63580	-723.48413	127.57505	477.43658	-687.36786	147.14299	213.98125	-618.05859	77.25434	165.77135	-572.99329	49.23674	159.07365	-492.51297	90.65031	161.37398	-531.55713	141.90935	166.44075	-630.92230	216.50076	219.36644	-590.86273	187.05812	170.03366	-713.67719	217.02635	169.64804	-569.51898	431.92960	885.73309	-523.06689	370.27029	840.81677	-616.44012	435.40054	756.81946	-647.97186	409.98151	631.08319	-617.40039	306.05859	583.34729	-656.56689	405.29233	566.64191	-605.51611	363.27878	544.62164	-709.97687	411.98297	515.86975	-680.13397	413.43958	213.60712	-585.37811	468.64401	165.63725	-546.42181	478.75378	159.31313	-486.80206	429.42056	167.92741	-524.91180	388.14444	177.46527	-642.74811	326.53867	206.94962	-593.91040	347.90463	169.16351	-731.91748	343.63745	164.59952	-443.47562	449.09723	147.00058	-450.47079	75.30757	144.66458	-806.26282	82.71323	142.52351	-799.25720	457.92194	144.64201	
50	0.980	-685.47180	250.11752	1834.73950	-630.02496	59.03196	1527.93127	-623.71582	452.17474	1521.75513	-526.91815	262.95605	1398.91077	-537.93597	134.06253	1058.04395	-540.74805	398.34442	1079.94885	-726.76215	241.38136	1063.25806	-570.28528	88.97642	894.23340	-523.84467	149.61224	846.77740	-620.85461	84.32634	753.11237	-643.67554	120.67380	608.22644	-630.21118	231.20084	569.23328	-682.22272	121.46582	543.86786	-598.02850	172.56674	550.54626	-723.44391	127.75301	477.44043	-687.46515	147.13152	213.99992	-618.03558	77.26945	165.80766	-572.95703	49.26625	159.13736	-492.49756	90.66750	161.40379	-531.51355	141.92831	166.44420	-630.99176	216.47673	219.25293	-590.67810	187.17503	170.15056	-713.67133	217.06847	169.63214	-569.71021	432.34015	885.77228	-522.97412	370.51996	840.86304	-616.51788	435.67859	756.89526	-648.16687	410.30609	631.12360	-617.42505	306.28522	583.38403	-656.60376	405.43854	566.55310	-605.66272	363.48929	544.64581	-709.97430	412.19986	515.86597	-680.27863	413.28519	213.30978	-585.38751	468.65579	165.63612	-546.44067	478.77197	159.33844	-486.80939	429.39185	167.94537	-524.89893	388.12222	177.47803	-642.73566	326.56250	206.95755	-593.93048	347.76068	169.38936	-731.96021	343.64380	164.57115	-443.43719	449.07492	146.99159	-450.47980	75.31633	144.65286	-806.24200	82.69573	142.55945	-799.34131	457.81009	144.79034	
51	1.000	-685.93243	250.45981	1834.58215	-629.97205	59.42330	1527.79211	-624.13599	452.52600	1521.71130	-527.19946	263.26868	1398.97009	-538.16943	134.40141	1057.97668	-540.97595	398.73148	1079.95435	-726.89886	241.67769	1063.09094	-570.36169	89.29389	894.28137	-523.91443	150.11778	846.74347	-620.72107	84.54723	752.92969	-643.62360	120.88875	608.13934	-630.19592	231.34415	569.11115	-682.18005	121.62325	543.87457	-597.98175	172.89389	550.45911	-723.39581	127.91891	477.40924	-687.52777	147.13364	214.00674	-618.02167	77.28058	165.84583	-572.93622	49.29542	159.17891	-492.49683	90.68418	161.41792	-531.49170	141.91493	166.42528	-630.96112	216.55556	219.22676	-590.43494	187.35782	170.36121	-713.67242	217.09822	169.62091	-569.87140	432.66068	885.72687	-522.93274	370.75922	840.74805	-616.64313	435.90295	756.93719	-648.33551	410.61588	631.14966	-617.47601	306.47910	583.40027	-656.69604	405.56900	566.48175	-605.82190	363.69543	544.63287	-709.96332	412.36142	515.86243	-680.34418	413.28644	213.24951	-585.41162	468.65826	165.60652	-546.43732	478.80069	159.37790	-486.80688	429.38062	167.93428	-524.90717	388.11020	177.47510	-642.75769	326.58243	206.96077	-593.99658	347.80127	169.34496	-731.99414	343.59622	164.56105	-443.41714	449.08173	146.98439	-450.48901	75.34878	144.62523	-806.23425	82.67039	142.59499	-799.36963	457.84210	144.83304	
52	1.020	-686.42072	250.76927	1834.49622	-630.14752	59.75925	1527.79004	-624.46387	452.86853	1521.66150	-527.46405	263.51016	1399.07422	-538.40430	134.70763	1057.88159	-541.16357	399.10736	1080.00146	-726.99542	241.95251	1062.96570	-570.43109	89.54726	894.33618	-523.96075	150.49101	846.74420	-620.70490	84.71944	752.82452	-643.54419	121.11760	608.07947	-630.14905	231.48396	569.06873	-682.11621	121.78313	543.89081	-597.95105	173.15543	550.39197	-723.32617	128.06439	477.35272	-687.50916	147.16394	214.00275	-618.01404	77.29609	165.87859	-572.93158	49.32897	159.20169	-492.50488	90.69241	161.41090	-531.50037	141.88428	166.39766	-630.88843	216.68390	219.26068	-590.23657	187.52420	170.55832	-713.70026	217.11859	169.61613	-570.01624	432.89709	885.65112	-523.06940	370.99481	840.48303	-616.84076	436.09616	756.94031	-648.43909	410.87057	631.14594	-617.54205	306.62241	583.43341	-656.83582	405.69415	566.45166	-605.94940	363.86826	544.60309	-709.96167	412.48697	515.85034	-680.38202	413.36908	213.29857	-585.43097	468.66730	165.57150	-546.41260	478.81235	159.39601	-486.80188	429.37820	167.89841	-524.92603	388.10919	177.46080	-642.79535	326.60080	207.00282	-594.10010	347.93878	169.16731	-732.02716	343.52423	164.57336	-443.41953	449.10428	146.98160	-450.49420	75.38482	144.59854	-806.24329	82.64730	142.60641	-799.34949	457.99670	144.75972	
